HIERARCHY
ROOT hip
{
  OFFSET 3.87286 85.1205 5.31472
  CHANNELS 6 Xposition Yposition Zposition Zrotation Xrotation Yrotation
  JOINT abdomen
  {
    OFFSET 0 20.6881 -0.73152
    CHANNELS 3 Zrotation Xrotation Yrotation
    JOINT chest
    {
      OFFSET 0 11.7043 -0.48768
      CHANNELS 3 Zrotation Xrotation Yrotation
      JOINT neck
      {
        OFFSET 0 22.1894 -2.19456
        CHANNELS 3 Zrotation Xrotation Yrotation
        JOINT head
        {
          OFFSET -0.24384 7.07133 1.2192
          CHANNELS 3 Zrotation Xrotation Yrotation
          JOINT leftEye
          {
            OFFSET 4.14528 8.04674 8.04672
            CHANNELS 3 Zrotation Xrotation Yrotation
            End Site
            {
              OFFSET 1 0 0
            }
          }
          JOINT rightEye
          {
            OFFSET -3.6576 8.04674 8.04672
            CHANNELS 3 Zrotation Xrotation Yrotation
            End Site
            {
              OFFSET 1 0 0
            }
          }
        }
      }
      JOINT rCollar
      {
        OFFSET -2.68224 19.2634 -4.8768
        CHANNELS 3 Zrotation Xrotation Yrotation
        JOINT rShldr
        {
          OFFSET -8.77824 -1.95073 1.46304
          CHANNELS 3 Zrotation Xrotation Yrotation
          JOINT rForeArm
          {
            OFFSET -28.1742 -1.7115 0.48768
            CHANNELS 3 Zrotation Xrotation Yrotation
            JOINT rHand
            {
              OFFSET -22.5879 0.773209 7.07136
              CHANNELS 3 Zrotation Xrotation Yrotation
              JOINT rThumb1
              {
                OFFSET -1.2192 -0.487915 3.41376
                CHANNELS 3 Zrotation Xrotation Yrotation
                JOINT rThumb2
                {
                  OFFSET -3.37035 -0.52449 3.41376
                  CHANNELS 3 Zrotation Xrotation Yrotation
                  End Site
                  {
                    OFFSET -1.78271 -1.18214 1.43049
                  }
                }
              }
              JOINT rIndex1
              {
                OFFSET -7.75947 0.938293 5.60832
                CHANNELS 3 Zrotation Xrotation Yrotation
                JOINT rIndex2
                {
                  OFFSET -2.54057 -0.884171 1.56538
                  CHANNELS 3 Zrotation Xrotation Yrotation
                  End Site
                  {
                    OFFSET -1.62519 -0.234802 1.16502
                  }
                }
              }
              JOINT rMid1
              {
                OFFSET -8.24714 1.18213 3.41376
                CHANNELS 3 Zrotation Xrotation Yrotation
                JOINT rMid2
                {
                  OFFSET -3.10165 -0.590103 1.0647
                  CHANNELS 3 Zrotation Xrotation Yrotation
                  End Site
                  {
                    OFFSET -2.48547 -0.328903 0.83742
                  }
                }
              }
              JOINT rRing1
              {
                OFFSET -8.82822 0.546677 1.51678
                CHANNELS 3 Zrotation Xrotation Yrotation
                JOINT rRing2
                {
                  OFFSET -2.60934 -0.819778 -0.0198488
                  CHANNELS 3 Zrotation Xrotation Yrotation
                  End Site
                  {
                    OFFSET -2.33842 -0.294052 0.168128
                  }
                }
              }
              JOINT rPinky1
              {
                OFFSET -8.27202 -0.0477905 -0.4584
                CHANNELS 3 Zrotation Xrotation Yrotation
                JOINT rPinky2
                {
                  OFFSET -1.82734 -0.647385 -0.700984
                  CHANNELS 3 Zrotation Xrotation Yrotation
                  End Site
                  {
                    OFFSET -1.69225 -0.51767 -0.607171
                  }
                }
              }
            }
          }
        }
      }
      JOINT lCollar
      {
        OFFSET 2.68224 19.2634 -4.8768
        CHANNELS 3 Zrotation Xrotation Yrotation
        JOINT lShldr
        {
          OFFSET 8.77824 -1.95073 1.46304
          CHANNELS 3 Zrotation Xrotation Yrotation
          JOINT lForeArm
          {
            OFFSET 28.1742 -1.7115 0.48768
            CHANNELS 3 Zrotation Xrotation Yrotation
            JOINT lHand
            {
              OFFSET 22.5879 0.773209 7.07136
              CHANNELS 3 Zrotation Xrotation Yrotation
              JOINT lThumb1
              {
                OFFSET 1.2192 -0.487915 3.41376
                CHANNELS 3 Zrotation Xrotation Yrotation
                JOINT lThumb2
                {
                  OFFSET 3.37035 -0.52449 3.41376
                  CHANNELS 3 Zrotation Xrotation Yrotation
                  End Site
                  {
                    OFFSET 1.78271 -1.18214 1.43049
                  }
                }
              }
              JOINT lIndex1
              {
                OFFSET 7.75947 0.938293 5.60832
                CHANNELS 3 Zrotation Xrotation Yrotation
                JOINT lIndex2
                {
                  OFFSET 2.54057 -0.884171 1.56538
                  CHANNELS 3 Zrotation Xrotation Yrotation
                  End Site
                  {
                    OFFSET 1.62519 -0.234802 1.16502
                  }
                }
              }
              JOINT lMid1
              {
                OFFSET 8.24714 1.18213 3.41376
                CHANNELS 3 Zrotation Xrotation Yrotation
                JOINT lMid2
                {
                  OFFSET 3.10165 -0.590103 1.0647
                  CHANNELS 3 Zrotation Xrotation Yrotation
                  End Site
                  {
                    OFFSET 2.48547 -0.328903 0.83742
                  }
                }
              }
              JOINT lRing1
              {
                OFFSET 8.82822 0.546677 1.51678
                CHANNELS 3 Zrotation Xrotation Yrotation
                JOINT lRing2
                {
                  OFFSET 2.60934 -0.819778 -0.0198488
                  CHANNELS 3 Zrotation Xrotation Yrotation
                  End Site
                  {
                    OFFSET 2.33842 -0.294052 0.168128
                  }
                }
              }
              JOINT lPinky1
              {
                OFFSET 8.27202 -0.0477905 -0.4584
                CHANNELS 3 Zrotation Xrotation Yrotation
                JOINT lPinky2
                {
                  OFFSET 1.82734 -0.647385 -0.700984
                  CHANNELS 3 Zrotation Xrotation Yrotation
                  End Site
                  {
                    OFFSET 1.69225 -0.51767 -0.607171
                  }
                }
              }
            }
          }
        }
      }
    }
  }
  JOINT rButtock
  {
    OFFSET -8.77824 4.35084 1.2192
    CHANNELS 3 Zrotation Xrotation Yrotation
    JOINT rThigh
    {
      OFFSET 0 -1.70687 -2.19456
      CHANNELS 3 Zrotation Xrotation Yrotation
      JOINT rShin
      {
        OFFSET 0 -36.8199 0.73152
        CHANNELS 3 Zrotation Xrotation Yrotation
        JOINT rFoot
        {
          OFFSET 0.73152 -45.1104 -5.12064
          CHANNELS 3 Zrotation Xrotation Yrotation
          End Site
          {
            OFFSET -1.1221 -3.69964 12.103
          }
        }
      }
    }
  }
  JOINT lButtock
  {
    OFFSET 8.77824 4.35084 1.2192
    CHANNELS 3 Zrotation Xrotation Yrotation
    JOINT lThigh
    {
      OFFSET 0 -1.70687 -2.19456
      CHANNELS 3 Zrotation Xrotation Yrotation
      JOINT lShin
      {
        OFFSET 0 -36.8199 0.73152
        CHANNELS 3 Zrotation Xrotation Yrotation
        JOINT lFoot
        {
          OFFSET -0.73152 -45.1104 -5.12064
          CHANNELS 3 Zrotation Xrotation Yrotation
          End Site
          {
            OFFSET 1.1221 -3.69964 12.103
          }
        }
      }
    }
  }
}
MOTION
Frames:	4
Frame Time:	0.00833333
3.01304 83.6554 6.53719 1.74839 0.00677003 -0.0332212 -2.30018 -0.000942058 -0.0623531 -0.634483 0.00830848 -0.109828 7.82082e-014 1.59028e-015 7.45447e-017 2.34257e-013 1.59028e-014 2.93518e-016 -0 0 0 -0 0 0 3.94101e-014 1.80925e-016 9.93923e-017 8.20323e-013 4.53478e-015 4.17448e-015 1.40936e-011 -4.09099e-012 -1.24042e-013 1.61409e-010 4.92959e-012 3.37139e-013 3.80715e-010 1.80901e-012 4.23014e-013 6.57472e-010 3.12649e-012 7.15625e-013 3.80717e-010 1.80934e-012 4.16653e-013 7.73091 5.47488 0.417314 3.80714e-010 1.80884e-012 4.16653e-013 2.90554 0.965183 0.102902 3.80713e-010 1.80854e-012 4.18243e-013 10.2786 0.731801 0.0259123 3.80709e-010 1.81212e-012 4.26194e-013 2.22167 -0.733487 -0.20892 3.91124e-014 1.83643e-016 -4.96962e-017 8.18135e-013 3.63403e-015 1.98785e-015 1.41114e-011 4.34126e-012 -1.145e-013 1.61368e-010 -3.54378e-012 3.14875e-013 3.80675e-010 1.72928e-012 4.23014e-013 6.57422e-010 2.98654e-012 7.10059e-013 3.80673e-010 1.72823e-012 4.32555e-013 -7.73091 5.47488 -0.417314 3.80675e-010 1.72873e-012 4.23014e-013 -2.90554 0.965183 -0.102902 3.80673e-010 1.72883e-012 4.20628e-013 -10.2786 0.731801 -0.0259123 3.80682e-010 1.733e-012 4.16653e-013 -2.22167 -0.733487 0.20892 -2.03217e-016 0 -3.88251e-019 -1.28252 -1.92859 0.00418417 -0.00873071 -2.07863 -0.0717954 -0.463141 3.99877 0.133094 2.03217e-016 0 3.88251e-019 -2.21825 -7.9285 0.228498 -0.00571521 8.78924 -0.145001 0.509263 -0.869111 -0.0398893 
2.21894 83.0163 6.89487 1.40349 -0.535041 -1.07132 -4.0112 2.237 0.304662 -0.996208 -2.17765 -0.109315 -2.60819 -0.250463 -2.00619 6.19692 5.88344 -4.43472 -0 0 0 -0 0 0 -1.1736e-014 -1.66896e-016 1.34172e-014 -1.8007 2.28682 17.6745 -22.5529 -20.4211 14.9549 0.155414 -8.76407 -1.18031 4.57135e-010 2.56007e-011 -2.2052e-010 7.94674e-010 4.97802e-011 -3.76562e-010 4.57136e-010 2.5601e-011 -2.20528e-010 7.73091 5.47488 0.417314 4.57134e-010 2.56003e-011 -2.20523e-010 2.90554 0.965183 0.102902 4.57136e-010 2.55998e-011 -2.20523e-010 10.2786 0.731801 0.0259123 4.5713e-010 2.5602e-011 -2.20515e-010 2.22167 -0.733487 -0.20892 -1.19974e-014 -1.61678e-016 1.32363e-014 -19.3299 19.4333 -12.3301 21.4832 -19.3206 -15.0865 -0.00243197 -1.09398 0.153648 5.93185e-010 -5.0132e-010 -3.64549e-010 1.02556e-009 -8.65607e-010 -6.28888e-010 5.93183e-010 -5.01322e-010 -3.64538e-010 -7.73091 5.47488 -0.417314 5.93186e-010 -5.01321e-010 -3.64546e-010 -2.90554 0.965183 -0.102902 5.9318e-010 -5.01321e-010 -3.64548e-010 -10.2786 0.731801 -0.0259123 5.93191e-010 -5.01317e-010 -3.6455e-010 -2.22167 -0.733487 0.20892 -2.03217e-016 0 -3.88251e-019 -1.78197 -2.98633 3.27735 -0.00252941 4.57147 0.0609976 -0.72107 0.322737 -2.94984 2.03217e-016 0 3.88251e-019 -1.47679 -7.56431 -2.29293 -0.0232079 13.4502 -0.215941 0.752339 -4.0986 2.55995 
2.22823 83.0164 6.89467 1.01741 -1.1075 -2.16872 -5.85182 4.60294 0.693962 -1.37793 -4.4895 -0.109064 -5.38469 -0.514407 -4.12648 13.7567 11.9901 -9.27891 -0 0 0 -0 0 0 -6.81678e-014 -1.57662e-015 2.66682e-014 -5.13926 3.97324 36.4324 -32.8965 -36.9886 37.0804 -0.0912542 -18.0181 -2.52376 5.44098e-010 4.82251e-011 -4.75938e-010 9.50917e-010 9.52008e-011 -8.12985e-010 5.44099e-010 4.82254e-011 -4.75948e-010 7.73091 5.47488 0.417314 5.44098e-010 4.82245e-011 -4.75936e-010 2.90554 0.965183 0.102902 5.44102e-010 4.82237e-011 -4.7594e-010 10.2786 0.731801 0.0259123 5.44094e-010 4.82246e-011 -4.7593e-010 2.22167 -0.733487 -0.20892 -6.83925e-014 -1.56911e-015 2.64508e-014 -29.0172 36.7243 -30.3605 31.6271 -34.9629 -36.5988 0.00138004 -2.24919 0.316085 8.38943e-010 -1.07729e-009 -7.86787e-010 1.45132e-009 -1.86023e-009 -1.35731e-009 8.3894e-010 -1.07729e-009 -7.86774e-010 -7.73091 5.47488 -0.417314 8.38943e-010 -1.07729e-009 -7.86781e-010 -2.90554 0.965183 -0.102902 8.38934e-010 -1.07729e-009 -7.86783e-010 -10.2786 0.731801 -0.0259123 8.38948e-010 -1.07729e-009 -7.86783e-010 -2.22167 -0.733487 0.20892 -2.03217e-016 0 -3.88251e-019 -2.17796 -4.08532 6.74651 -0.0299777 11.6003 0.205062 -1.42366 -3.5408 -6.22078 2.03217e-016 0 3.88251e-019 -0.65727 -7.1642 -4.95378 -0.0283715 18.3765 -0.295627 1.32985 -7.48826 5.3399 
2.22927 83.0145 6.89249 0.654794 -1.6165 -3.14862 -7.51973 6.71187 1.04516 -1.71957 -6.54958 -0.108762 -7.87708 -0.747704 -6.01904 21.4036 17.2179 -13.8669 -0 0 0 -0 0 0 -1.14028e-013 -8.62539e-016 4.00528e-014 -8.97629 4.32775 53.1978 -30.6592 -41.5765 63.4089 -0.72199 -26.2449 -3.90239 6.09974e-010 7.31839e-011 -6.62406e-010 1.06908e-009 1.43088e-010 -1.13112e-009 6.09975e-010 7.31843e-011 -6.62418e-010 7.73091 5.47488 0.417314 6.09974e-010 7.31831e-011 -6.62401e-010 2.90554 0.965183 0.102902 6.0998e-010 7.31822e-011 -6.62407e-010 10.2786 0.731801 0.0259123 6.09971e-010 7.31819e-011 -6.62397e-010 2.22167 -0.733487 -0.20892 -1.14217e-013 -8.52319e-016 3.98082e-014 -26.256 45.0386 -53.9712 30.3208 -39.4999 -61.4172 0.0103307 -3.28185 0.461617 1.01821e-009 -1.50742e-009 -1.09449e-009 1.76184e-009 -2.60279e-009 -1.88808e-009 1.0182e-009 -1.50742e-009 -1.09448e-009 -7.73091 5.47488 -0.417314 1.01821e-009 -1.50742e-009 -1.09448e-009 -2.90554 0.965183 -0.102902 1.01819e-009 -1.50742e-009 -1.09448e-009 -10.2786 0.731801 -0.0259123 1.01821e-009 -1.50742e-009 -1.09448e-009 -2.22167 -0.733487 0.20892 -2.03217e-016 0 -3.88251e-019 -2.41934 -5.04143 9.8488 -0.0858366 17.8714 0.34243 -2.42421 -6.93888 -9.18275 2.03217e-016 0 3.88251e-019 0.103562 -6.7984 -7.3233 -0.0203848 22.7718 -0.372495 2.1276 -10.4724 7.87191 
